<svg width="741" height="883" viewBox="0 0 741 883" fill="none" xmlns="http://www.w3.org/2000/svg">
<path d="M785.5 441.5C785.5 631.486 631.486 785.5 441.5 785.5C251.514 785.5 97.5 631.486 97.5 441.5C97.5 251.514 251.514 97.5 441.5 97.5C631.486 97.5 785.5 251.514 785.5 441.5Z" stroke="black" stroke-opacity="0.2"/>
<path d="M684.5 441C684.5 574.929 575.929 683.5 442 683.5C308.071 683.5 199.5 574.929 199.5 441C199.5 307.071 308.071 198.5 442 198.5C575.929 198.5 684.5 307.071 684.5 441Z" stroke="black" stroke-opacity="0.2"/>
<path d="M882.5 441.5C882.5 685.058 685.058 882.5 441.5 882.5C197.942 882.5 0.5 685.058 0.5 441.5C0.5 197.942 197.942 0.5 441.5 0.5C685.058 0.5 882.5 197.942 882.5 441.5Z" stroke="black" stroke-opacity="0.2"/>
<rect x="0.5" y="247.5" width="64" height="64" rx="32" fill="white"/>
<rect x="1.18085" y="248.181" width="62.6383" height="62.6383" rx="31.3191" stroke="black" stroke-opacity="0.1" stroke-width="1.3617"/>
<path d="M41.4368 284.606C41.4348 286.163 40.8154 287.656 39.7146 288.757C38.6137 289.857 37.1213 290.477 35.5645 290.479H33.2666V292.777C33.2666 292.98 33.1859 293.175 33.0422 293.318C32.8986 293.462 32.7038 293.543 32.5006 293.543C32.2975 293.543 32.1027 293.462 31.959 293.318C31.8154 293.175 31.7347 292.98 31.7347 292.777V290.479H29.4368C27.88 290.477 26.3875 289.857 25.2867 288.757C24.1858 287.656 23.5665 286.163 23.5645 284.606C23.5645 284.403 23.6452 284.208 23.7888 284.065C23.9324 283.921 24.1273 283.84 24.3304 283.84C24.5336 283.84 24.7284 283.921 24.872 284.065C25.0157 284.208 25.0964 284.403 25.0964 284.606C25.0964 285.758 25.5537 286.862 26.3676 287.676C27.1816 288.49 28.2856 288.947 29.4368 288.947H35.5645C36.7156 288.947 37.8196 288.49 38.6336 287.676C39.4476 286.862 39.9049 285.758 39.9049 284.606C39.9049 283.455 39.4476 282.351 38.6336 281.537C37.8196 280.723 36.7156 280.266 35.5645 280.266H30.4581C28.9006 280.266 27.407 279.647 26.3057 278.546C25.2044 277.445 24.5857 275.951 24.5857 274.394C24.5857 272.836 25.2044 271.343 26.3057 270.241C27.407 269.14 28.9006 268.521 30.4581 268.521H31.7347V266.223C31.7347 266.02 31.8154 265.826 31.959 265.682C32.1027 265.538 32.2975 265.458 32.5006 265.458C32.7038 265.458 32.8986 265.538 33.0422 265.682C33.1859 265.826 33.2666 266.02 33.2666 266.223V268.521H34.5432C36.1 268.523 37.5925 269.143 38.6933 270.244C39.7941 271.344 40.4135 272.837 40.4155 274.394C40.4155 274.597 40.3348 274.792 40.1912 274.935C40.0475 275.079 39.8527 275.16 39.6496 275.16C39.4464 275.16 39.2516 275.079 39.1079 274.935C38.9643 274.792 38.8836 274.597 38.8836 274.394C38.8836 273.243 38.4263 272.139 37.6123 271.325C36.7983 270.511 35.6943 270.053 34.5432 270.053H30.4581C29.3069 270.053 28.2029 270.511 27.3889 271.325C26.5749 272.139 26.1176 273.243 26.1176 274.394C26.1176 275.545 26.5749 276.649 27.3889 277.463C28.2029 278.277 29.3069 278.734 30.4581 278.734H35.5645C37.1213 278.736 38.6137 279.355 39.7146 280.456C40.8154 281.557 41.4348 283.05 41.4368 284.606Z" fill="#0E51A0" fill-opacity="0.6"/>
<rect x="143.5" y="754.5" width="64" height="64" rx="32" fill="white"/>
<rect x="144.181" y="755.181" width="62.6383" height="62.6383" rx="31.3191" stroke="black" stroke-opacity="0.1" stroke-width="1.3617"/>
<path d="M184.776 779.691C184.776 779.895 184.696 780.089 184.552 780.233C184.408 780.377 184.214 780.457 184.011 780.457H179.631C179.657 780.712 179.67 780.967 179.67 781.223C179.668 783.186 178.887 785.068 177.499 786.456C176.111 787.844 174.229 788.625 172.266 788.628H169.651L179.415 797.508C179.565 797.644 179.655 797.835 179.664 798.038C179.674 798.241 179.603 798.44 179.466 798.59C179.329 798.74 179.138 798.83 178.935 798.84C178.732 798.849 178.534 798.778 178.383 798.641L167.149 788.428C167.034 788.324 166.954 788.187 166.919 788.036C166.883 787.885 166.895 787.727 166.951 787.583C167.007 787.438 167.106 787.314 167.235 787.227C167.363 787.14 167.515 787.094 167.67 787.096H172.266C173.823 787.094 175.315 786.474 176.416 785.373C177.517 784.273 178.136 782.78 178.138 781.223C178.137 780.967 178.12 780.711 178.087 780.457H167.67C167.467 780.457 167.272 780.377 167.128 780.233C166.985 780.089 166.904 779.895 166.904 779.691C166.904 779.488 166.985 779.293 167.128 779.15C167.272 779.006 167.467 778.925 167.67 778.925H177.67C177.218 777.866 176.465 776.963 175.504 776.327C174.544 775.692 173.418 775.352 172.266 775.351H167.67C167.467 775.351 167.272 775.27 167.128 775.127C166.985 774.983 166.904 774.788 166.904 774.585C166.904 774.382 166.985 774.187 167.128 774.043C167.272 773.9 167.467 773.819 167.67 773.819H184.011C184.214 773.819 184.408 773.9 184.552 774.043C184.696 774.187 184.776 774.382 184.776 774.585C184.776 774.788 184.696 774.983 184.552 775.127C184.408 775.27 184.214 775.351 184.011 775.351H176.768C177.953 776.261 178.837 777.506 179.304 778.925H184.011C184.214 778.925 184.408 779.006 184.552 779.15C184.696 779.293 184.776 779.488 184.776 779.691Z" fill="#0E51A0" fill-opacity="0.6"/>
<rect x="625.5" y="789.5" width="64" height="64" rx="32" fill="white"/>
<rect x="626.181" y="790.181" width="62.6383" height="62.6383" rx="31.3191" stroke="black" stroke-opacity="0.1" stroke-width="1.3617"/>
<path d="M664.538 829.201C664.605 829.276 664.657 829.364 664.691 829.459C664.724 829.554 664.738 829.655 664.733 829.755C664.727 829.856 664.702 829.954 664.658 830.045C664.614 830.136 664.553 830.217 664.478 830.284C663.094 831.521 661.391 832.347 659.563 832.668C657.734 832.989 655.852 832.792 654.129 832.099C652.407 831.407 650.912 830.247 649.814 828.75C648.715 827.253 648.057 825.479 647.914 823.628H645.585C645.381 823.628 645.187 823.547 645.043 823.403C644.899 823.26 644.819 823.065 644.819 822.862C644.819 822.659 644.899 822.464 645.043 822.32C645.187 822.177 645.381 822.096 645.585 822.096H647.882V819.543H645.585C645.381 819.543 645.187 819.462 645.043 819.318C644.899 819.175 644.819 818.98 644.819 818.777C644.819 818.574 644.899 818.379 645.043 818.235C645.187 818.091 645.381 818.011 645.585 818.011H647.914C648.057 816.16 648.715 814.385 649.814 812.888C650.912 811.391 652.407 810.231 654.129 809.539C655.852 808.847 657.734 808.65 659.563 808.971C661.391 809.292 663.094 810.117 664.478 811.355C664.631 811.49 664.723 811.68 664.735 811.884C664.747 812.087 664.677 812.287 664.542 812.44C664.407 812.592 664.216 812.684 664.013 812.696C663.809 812.708 663.609 812.639 663.457 812.503C662.294 811.463 660.864 810.767 659.328 810.492C657.792 810.216 656.21 810.373 654.758 810.944C653.306 811.515 652.041 812.478 651.104 813.726C650.167 814.973 649.595 816.457 649.451 818.011H657.84C658.043 818.011 658.238 818.091 658.381 818.235C658.525 818.379 658.606 818.574 658.606 818.777C658.606 818.98 658.525 819.175 658.381 819.318C658.238 819.462 658.043 819.543 657.84 819.543H649.414V822.096H655.797C656 822.096 656.195 822.177 656.339 822.32C656.483 822.464 656.563 822.659 656.563 822.862C656.563 823.065 656.483 823.26 656.339 823.403C656.195 823.547 656 823.628 655.797 823.628H649.451C649.593 825.182 650.165 826.667 651.101 827.916C652.038 829.164 653.303 830.129 654.755 830.7C656.207 831.272 657.79 831.43 659.327 831.154C660.863 830.879 662.293 830.183 663.457 829.143C663.608 829.007 663.807 828.937 664.01 828.948C664.212 828.959 664.403 829.05 664.538 829.201Z" fill="#0E51A0" fill-opacity="0.6"/>
</svg>
