<svg width="17" height="16" viewBox="0 0 17 16" fill="none" xmlns="http://www.w3.org/2000/svg">
<g id="ArrowRight">
<path id="Vector" d="M14.265 8.26498L9.765 12.765C9.69391 12.8312 9.59989 12.8673 9.50274 12.8656C9.40559 12.8639 9.3129 12.8245 9.24419 12.7558C9.17548 12.6871 9.13613 12.5944 9.13441 12.4972C9.1327 12.4001 9.16876 12.3061 9.235 12.235L13.0944 8.37498H3C2.90054 8.37498 2.80516 8.33548 2.73483 8.26515C2.66451 8.19482 2.625 8.09944 2.625 7.99998C2.625 7.90053 2.66451 7.80515 2.73483 7.73482C2.80516 7.66449 2.90054 7.62498 3 7.62498H13.0944L9.235 3.76498C9.16876 3.6939 9.1327 3.59987 9.13441 3.50272C9.13613 3.40557 9.17548 3.31288 9.24419 3.24417C9.3129 3.17547 9.40559 3.13611 9.50274 3.1344C9.59989 3.13268 9.69391 3.16874 9.765 3.23498L14.265 7.73498C14.3352 7.8053 14.3747 7.90061 14.3747 7.99998C14.3747 8.09936 14.3352 8.19467 14.265 8.26498Z" fill="#2E42A5"/>
</g>
</svg>
