<svg width="30" height="30" viewBox="0 0 30 30" fill="none" xmlns="http://www.w3.org/2000/svg">
<g id="CaretCircleRight">
<path id="Vector" d="M15 3.04688C12.6359 3.04687 10.3249 3.74791 8.3592 5.06134C6.39352 6.37477 4.86146 8.24159 3.95676 10.4257C3.05205 12.6099 2.81534 15.0133 3.27656 17.3319C3.73777 19.6506 4.87619 21.7805 6.54787 23.4521C8.21954 25.1238 10.3494 26.2622 12.6681 26.7234C14.9867 27.1847 17.3901 26.948 19.5743 26.0432C21.7584 25.1385 23.6252 23.6065 24.9387 21.6408C26.2521 19.6751 26.9531 17.3641 26.9531 15C26.9494 11.831 25.6889 8.79281 23.448 6.55197C21.2072 4.31114 18.169 3.0506 15 3.04688ZM15 25.5469C12.914 25.5469 10.8749 24.9283 9.14048 23.7694C7.40605 22.6105 6.05423 20.9633 5.25596 19.0361C4.4577 17.1089 4.24883 14.9883 4.65579 12.9424C5.06274 10.8965 6.06723 9.01724 7.54224 7.54223C9.01725 6.06723 10.8965 5.06273 12.9424 4.65578C14.9883 4.24883 17.1089 4.45769 19.0361 5.25596C20.9633 6.05423 22.6105 7.40605 23.7694 9.14047C24.9283 10.8749 25.5469 12.914 25.5469 15C25.5438 17.7963 24.4316 20.4771 22.4543 22.4543C20.4771 24.4316 17.7963 25.5438 15 25.5469ZM18.3094 14.5031C18.4411 14.635 18.515 14.8137 18.515 15C18.515 15.1863 18.4411 15.365 18.3094 15.4969L13.6219 20.1844C13.4886 20.3086 13.3123 20.3762 13.1301 20.373C12.948 20.3698 12.7742 20.296 12.6454 20.1671C12.5165 20.0383 12.4427 19.8645 12.4395 19.6824C12.4363 19.5002 12.5039 19.3239 12.6281 19.1906L16.8176 15L12.6281 10.8094C12.5039 10.6761 12.4363 10.4998 12.4395 10.3176C12.4427 10.1355 12.5165 9.96168 12.6454 9.83285C12.7742 9.70403 12.948 9.63024 13.1301 9.62702C13.3123 9.62381 13.4886 9.69142 13.6219 9.81562L18.3094 14.5031Z" fill="white"/>
</g>
</svg>
