<svg width="24" height="24" viewBox="0 0 24 24" fill="none" xmlns="http://www.w3.org/2000/svg">
<g id="forex 1">
<g id="Group">
<g id="Group_2">
<g id="Group_3">
<path id="Vector" d="M8.07662 2.03407C4.72828 2.03407 2 4.76058 2 8.11246C2 11.4643 4.72828 14.1926 8.07662 14.1926C8.46638 14.1926 8.85613 14.1554 9.22817 14.0792C9.08644 14.6284 9.01557 15.2095 9.01557 15.8012C9.01557 19.612 12.1159 22.7105 15.9231 22.7105C19.7338 22.7105 22.8324 19.612 22.8324 15.8012C22.8324 11.9941 19.7338 8.89551 15.9231 8.89551C15.2764 8.89551 14.6493 8.98409 14.0647 9.14885C14.1178 8.80693 14.1532 8.4597 14.1532 8.11246C14.1532 4.76058 11.425 2.03407 8.07662 2.03407ZM8.07662 3.15904C10.8049 3.15904 13.0194 5.37001 13.0194 8.11246C13.0194 8.63863 12.9485 9.15771 12.7714 9.65553C11.4427 10.3341 10.362 11.4413 9.7065 12.786C9.17502 12.9738 8.62582 13.0677 8.07662 13.0677C5.33063 13.0677 3.11611 10.8549 3.11611 8.11246C3.11611 5.37001 5.33063 3.15904 8.07662 3.15904ZM15.9231 10.0205C19.1244 10.0205 21.7074 12.6035 21.7074 15.8012C21.7074 19.0025 19.1244 21.5856 15.9231 21.5856C12.7182 21.5856 10.1494 19.0025 10.1494 15.8012C10.1494 12.6035 12.7182 10.0205 15.9231 10.0205Z" fill="#0E51A0"/>
<path id="Vector_2" d="M15.9227 11.9144C15.8487 11.9143 15.7754 11.9288 15.707 11.9571C15.6386 11.9854 15.5764 12.0269 15.5241 12.0792C15.4718 12.1315 15.4303 12.1937 15.402 12.2621C15.3737 12.3305 15.3592 12.4038 15.3594 12.4778V12.7861C14.6312 13.0252 14.082 13.7197 14.082 14.5293C14.082 15.5374 14.9147 16.363 15.9227 16.363C16.3213 16.363 16.6296 16.673 16.6296 17.0751C16.6296 17.4738 16.3213 17.7838 15.9227 17.7838C15.7261 17.7838 15.5525 17.7041 15.4214 17.5765C15.3161 17.4726 15.1742 17.4144 15.0263 17.4144C14.8784 17.4144 14.7365 17.4726 14.6312 17.5765C14.5268 17.6818 14.4683 17.8242 14.4683 17.9725C14.4683 18.1208 14.5268 18.2631 14.6312 18.3684C14.8615 18.5987 15.145 18.767 15.4727 18.8521V19.1284C15.4726 19.2023 15.4871 19.2755 15.5152 19.3438C15.5434 19.412 15.5847 19.4741 15.6369 19.5264C15.689 19.5787 15.751 19.6203 15.8192 19.6487C15.8874 19.677 15.9605 19.6917 16.0343 19.6918C16.1084 19.6919 16.1817 19.6774 16.2501 19.6492C16.3185 19.6209 16.3806 19.5794 16.433 19.5271C16.4853 19.4747 16.5268 19.4126 16.5551 19.3442C16.5833 19.2758 16.5978 19.2025 16.5977 19.1284V18.7777C17.2727 18.5048 17.7546 17.844 17.7546 17.0751C17.7546 16.0671 16.9308 15.238 15.9227 15.238C15.5241 15.238 15.2159 14.9279 15.2159 14.5293C15.2159 14.1325 15.5241 13.8225 15.9227 13.8225C16.1229 13.8225 16.2965 13.9022 16.4241 14.028C16.4764 14.0805 16.5385 14.1221 16.6069 14.1505C16.6753 14.179 16.7486 14.1936 16.8227 14.1936C16.8968 14.1936 16.9701 14.179 17.0385 14.1505C17.1069 14.1221 17.1691 14.0805 17.2213 14.028C17.3268 13.9225 17.3861 13.7794 17.3861 13.6302C17.3861 13.4811 17.3268 13.338 17.2213 13.2325C17.015 13.0267 16.7623 12.8736 16.4843 12.7861V12.4778C16.4845 12.4039 16.47 12.3308 16.4419 12.2625C16.4137 12.1942 16.3724 12.1321 16.3202 12.0798C16.2681 12.0275 16.2061 11.986 16.1379 11.9576C16.0697 11.9292 15.9966 11.9146 15.9227 11.9144Z" fill="#0E51A0"/>
<path id="Vector_3" d="M8.37826 5.18592C6.87239 5.18592 5.70312 6.53058 5.70312 8.10731C5.70312 9.68227 6.87239 11.0269 8.37826 11.0269C8.92746 11.0269 9.45894 10.8427 9.90184 10.5096C9.96059 10.4648 10.0099 10.4089 10.0471 10.3451C10.0842 10.2812 10.1084 10.2107 10.1183 10.1374C10.1281 10.0642 10.1235 9.9898 10.1046 9.91839C10.0857 9.84698 10.0529 9.77999 10.0081 9.72125C9.9184 9.6046 9.78653 9.52777 9.6408 9.50724C9.49507 9.48671 9.3471 9.5241 9.22863 9.61141C8.96289 9.80451 8.67943 9.90195 8.37826 9.90195C7.5456 9.90195 6.81924 9.13661 6.81924 8.10731C6.81924 7.07623 7.5456 6.3109 8.37826 6.3109C8.67943 6.3109 8.96289 6.40834 9.22863 6.60321C9.34732 6.69033 9.49543 6.72743 9.64117 6.70656C9.78691 6.6857 9.91866 6.60852 10.0081 6.4916C10.098 6.37308 10.1373 6.22377 10.1174 6.07636C10.0975 5.92894 10.02 5.79542 9.90184 5.70501C9.45894 5.37017 8.92746 5.18592 8.37826 5.18592Z" fill="#0E51A0"/>
</g>
<path id="Vector_4" d="M5.56131 7.54378C5.48699 7.54319 5.4133 7.55734 5.34449 7.5854C5.27567 7.61346 5.2131 7.65488 5.16039 7.70726C5.10768 7.75965 5.06587 7.82196 5.03737 7.89059C5.00888 7.95923 4.99427 8.03283 4.99439 8.10715C4.99451 8.18131 5.00929 8.25473 5.03788 8.32316C5.06648 8.39159 5.10833 8.45369 5.16102 8.50589C5.21371 8.55808 5.2762 8.59934 5.3449 8.62729C5.4136 8.65524 5.48714 8.66933 5.56131 8.66875H8.25416C8.32832 8.66933 8.40187 8.65524 8.47056 8.62729C8.53926 8.59934 8.60175 8.55808 8.65444 8.50589C8.70713 8.45369 8.74898 8.39159 8.77758 8.32316C8.80617 8.25473 8.82096 8.18131 8.82107 8.10715C8.82119 8.03283 8.80658 7.95923 8.77809 7.89059C8.7496 7.82196 8.70779 7.75965 8.65507 7.70726C8.60236 7.65488 8.53979 7.61346 8.47097 7.5854C8.40216 7.55734 8.32847 7.54319 8.25416 7.54378H5.56131ZM14.4194 2.00041C14.3374 2.00244 14.2569 2.02236 14.1834 2.05878C14.11 2.0952 14.0454 2.14723 13.9942 2.21123C13.9488 2.27008 13.9156 2.33733 13.8964 2.40909C13.8772 2.48085 13.8724 2.55571 13.8823 2.62934C13.8922 2.70297 13.9165 2.77391 13.954 2.83807C13.9914 2.90222 14.0412 2.95833 14.1005 3.00314L17.6295 5.80228L16.71 5.8448C16.5611 5.85236 16.4213 5.91876 16.3213 6.02938C16.2213 6.14001 16.1693 6.28581 16.1768 6.43475C16.1839 6.58303 16.2494 6.72248 16.3589 6.8227C16.4684 6.92292 16.6131 6.97579 16.7614 6.96977L19.185 6.85639C19.2648 6.85248 19.3429 6.8316 19.414 6.79514C19.4852 6.75868 19.5477 6.70748 19.5975 6.64495C19.6473 6.58243 19.6832 6.51001 19.7028 6.43252C19.7224 6.35503 19.7252 6.27426 19.7112 6.19558L19.27 3.80922C19.2565 3.73647 19.2288 3.6671 19.1884 3.60509C19.148 3.54308 19.0958 3.48964 19.0348 3.44784C18.9737 3.40604 18.905 3.3767 18.8326 3.36149C18.7602 3.34629 18.6855 3.34552 18.6128 3.35923C18.4668 3.38776 18.3381 3.47291 18.2548 3.59609C18.1714 3.71926 18.1403 3.87041 18.1681 4.0165L18.3328 4.92534L14.7914 2.12265C14.686 2.03866 14.554 1.99528 14.4194 2.00041ZM6.2168 17.7731C6.18718 17.7725 6.15756 17.7743 6.12822 17.7784L3.71883 17.9892C3.63924 17.9967 3.56216 18.021 3.49273 18.0606C3.42329 18.1003 3.3631 18.1542 3.31616 18.2189C3.26922 18.2836 3.23661 18.3576 3.22051 18.4359C3.20441 18.5142 3.20518 18.595 3.22278 18.673L3.75427 21.0364C3.77029 21.1087 3.80044 21.1771 3.84298 21.2377C3.88552 21.2984 3.93962 21.35 4.00218 21.3897C4.06473 21.4294 4.1345 21.4563 4.20748 21.4689C4.28047 21.4816 4.35523 21.4797 4.42748 21.4633C4.49982 21.4471 4.56824 21.4168 4.62882 21.374C4.68939 21.3313 4.74091 21.277 4.78043 21.2142C4.81994 21.1515 4.84667 21.0816 4.85906 21.0085C4.87146 20.9354 4.86928 20.8606 4.85266 20.7883L4.64007 19.8689L8.21872 22.6999C8.27696 22.7467 8.34395 22.7815 8.41577 22.8022C8.48759 22.8228 8.56281 22.8289 8.63703 22.8202C8.71126 22.8115 8.78299 22.788 8.84805 22.7512C8.91311 22.7145 8.97019 22.6651 9.01595 22.606C9.06128 22.5472 9.09452 22.4799 9.11372 22.4081C9.13293 22.3364 9.13773 22.2615 9.12784 22.1879C9.11796 22.1143 9.09359 22.0433 9.05614 21.9792C9.01869 21.915 8.9689 21.8589 8.90965 21.8141L5.331 18.9777L6.23452 18.898C6.30833 18.8919 6.38019 18.8712 6.446 18.8373C6.5118 18.8033 6.57025 18.7566 6.61799 18.7C6.66572 18.6434 6.7018 18.5779 6.72416 18.5073C6.74653 18.4367 6.75472 18.3624 6.74829 18.2886C6.7371 18.1529 6.67707 18.0258 6.57934 17.931C6.4816 17.8362 6.35279 17.7801 6.2168 17.7731Z" fill="#0E51A0"/>
</g>
</g>
</g>
</svg>
