<svg width="24" height="25" viewBox="0 0 24 25" fill="none" xmlns="http://www.w3.org/2000/svg">
<g id="flag">
<mask id="mask0_470_110" style="mask-type:luminance" maskUnits="userSpaceOnUse" x="-4" y="0" width="32" height="25">
<rect id="mask" x="-4" y="0.5" width="32" height="24" fill="white"/>
</mask>
<g mask="url(#mask0_470_110)">
<g id="contents">
<path id="middle" fill-rule="evenodd" clip-rule="evenodd" d="M-4 0.5H28V24.5H-4V0.5Z" fill="#F7FCFF"/>
<path id="Combined Shape" fill-rule="evenodd" clip-rule="evenodd" d="M-4 15.1667V17.1667H28V15.1667H-4Z" fill="#E31D1C"/>
<path id="Combined Shape_2" fill-rule="evenodd" clip-rule="evenodd" d="M-4 18.8333V20.8333H28V18.8333H-4Z" fill="#E31D1C"/>
<path id="Combined Shape_3" fill-rule="evenodd" clip-rule="evenodd" d="M-4 7.83334V9.83334H28V7.83334H-4Z" fill="#E31D1C"/>
<path id="Combined Shape_4" fill-rule="evenodd" clip-rule="evenodd" d="M-4 22.5V24.5H28V22.5H-4Z" fill="#E31D1C"/>
<path id="Combined Shape_5" fill-rule="evenodd" clip-rule="evenodd" d="M-4 11.5V13.5H28V11.5H-4Z" fill="#E31D1C"/>
<path id="Combined Shape_6" fill-rule="evenodd" clip-rule="evenodd" d="M-4 0.5V2.5H28V0.5H-4Z" fill="#E31D1C"/>
<path id="Combined Shape_7" fill-rule="evenodd" clip-rule="evenodd" d="M-4 4.16666V6.16666H28V4.16666H-4Z" fill="#E31D1C"/>
<rect id="Rectangle 82" x="-4" y="0.5" width="20" height="13" fill="#2E42A5"/>
<path id="Combined Shape_8" fill-rule="evenodd" clip-rule="evenodd" d="M-2.27779 3.43868L-3.00367 3.94756L-2.7586 3.04195L-3.40332 2.46804H-2.56123L-2.2788 1.72897L-1.94763 2.46804H-1.22978L-1.79381 3.04195L-1.57545 3.94756L-2.27779 3.43868ZM1.72221 3.43868L0.996331 3.94756L1.2414 3.04195L0.59668 2.46804H1.43877L1.7212 1.72897L2.05237 2.46804H2.77022L2.20619 3.04195L2.42455 3.94756L1.72221 3.43868ZM4.99633 3.94756L5.72221 3.43868L6.42455 3.94756L6.20619 3.04195L6.77022 2.46804H6.05237L5.7212 1.72897L5.43877 2.46804H4.59668L5.2414 3.04195L4.99633 3.94756ZM9.72221 3.43868L8.99633 3.94756L9.2414 3.04195L8.59668 2.46804H9.43877L9.7212 1.72897L10.0524 2.46804H10.7702L10.2062 3.04195L10.4245 3.94756L9.72221 3.43868ZM-3.00367 7.94756L-2.27779 7.43867L-1.57545 7.94756L-1.79381 7.04195L-1.22978 6.46804H-1.94763L-2.2788 5.72897L-2.56123 6.46804H-3.40332L-2.7586 7.04195L-3.00367 7.94756ZM1.72221 7.43867L0.996331 7.94756L1.2414 7.04195L0.59668 6.46804H1.43877L1.7212 5.72897L2.05237 6.46804H2.77022L2.20619 7.04195L2.42455 7.94756L1.72221 7.43867ZM4.99633 7.94756L5.72221 7.43867L6.42455 7.94756L6.20619 7.04195L6.77022 6.46804H6.05237L5.7212 5.72897L5.43877 6.46804H4.59668L5.2414 7.04195L4.99633 7.94756ZM9.72221 7.43867L8.99633 7.94756L9.2414 7.04195L8.59668 6.46804H9.43877L9.7212 5.72897L10.0524 6.46804H10.7702L10.2062 7.04195L10.4245 7.94756L9.72221 7.43867ZM-3.00367 11.9476L-2.27779 11.4387L-1.57545 11.9476L-1.79381 11.042L-1.22978 10.468H-1.94763L-2.2788 9.72897L-2.56123 10.468H-3.40332L-2.7586 11.042L-3.00367 11.9476ZM1.72221 11.4387L0.996331 11.9476L1.2414 11.042L0.59668 10.468H1.43877L1.7212 9.72897L2.05237 10.468H2.77022L2.20619 11.042L2.42455 11.9476L1.72221 11.4387ZM4.99633 11.9476L5.72221 11.4387L6.42455 11.9476L6.20619 11.042L6.77022 10.468H6.05237L5.7212 9.72897L5.43877 10.468H4.59668L5.2414 11.042L4.99633 11.9476ZM9.72221 11.4387L8.99633 11.9476L9.2414 11.042L8.59668 10.468H9.43877L9.7212 9.72897L10.0524 10.468H10.7702L10.2062 11.042L10.4245 11.9476L9.72221 11.4387ZM12.9963 3.94756L13.7222 3.43868L14.4245 3.94756L14.2062 3.04195L14.7702 2.46804H14.0524L13.7212 1.72897L13.4388 2.46804H12.5967L13.2414 3.04195L12.9963 3.94756ZM13.7222 7.43867L12.9963 7.94756L13.2414 7.04195L12.5967 6.46804H13.4388L13.7212 5.72897L14.0524 6.46804H14.7702L14.2062 7.04195L14.4245 7.94756L13.7222 7.43867ZM12.9963 11.9476L13.7222 11.4387L14.4245 11.9476L14.2062 11.042L14.7702 10.468H14.0524L13.7212 9.72897L13.4388 10.468H12.5967L13.2414 11.042L12.9963 11.9476ZM-0.277789 5.43867L-1.00367 5.94756L-0.758604 5.04195L-1.40332 4.46804H-0.561233L-0.278804 3.72897L0.0523674 4.46804H0.770224L0.206187 5.04195L0.424549 5.94756L-0.277789 5.43867ZM2.99633 5.94756L3.72221 5.43867L4.42455 5.94756L4.20619 5.04195L4.77022 4.46804H4.05237L3.7212 3.72897L3.43877 4.46804H2.59668L3.2414 5.04195L2.99633 5.94756ZM7.72221 5.43867L6.99633 5.94756L7.2414 5.04195L6.59668 4.46804H7.43877L7.7212 3.72897L8.05237 4.46804H8.77022L8.20619 5.04195L8.42455 5.94756L7.72221 5.43867ZM-1.00367 9.94756L-0.277789 9.43867L0.424549 9.94756L0.206187 9.04195L0.770224 8.46804H0.0523674L-0.278804 7.72897L-0.561233 8.46804H-1.40332L-0.758604 9.04195L-1.00367 9.94756ZM3.72221 9.43867L2.99633 9.94756L3.2414 9.04195L2.59668 8.46804H3.43877L3.7212 7.72897L4.05237 8.46804H4.77022L4.20619 9.04195L4.42455 9.94756L3.72221 9.43867ZM6.99633 9.94756L7.72221 9.43867L8.42455 9.94756L8.20619 9.04195L8.77022 8.46804H8.05237L7.7212 7.72897L7.43877 8.46804H6.59668L7.2414 9.04195L6.99633 9.94756ZM11.7222 5.43867L10.9963 5.94756L11.2414 5.04195L10.5967 4.46804H11.4388L11.7212 3.72897L12.0524 4.46804H12.7702L12.2062 5.04195L12.4245 5.94756L11.7222 5.43867ZM10.9963 9.94756L11.7222 9.43867L12.4245 9.94756L12.2062 9.04195L12.7702 8.46804H12.0524L11.7212 7.72897L11.4388 8.46804H10.5967L11.2414 9.04195L10.9963 9.94756Z" fill="#F7FCFF"/>
</g>
</g>
</g>
</svg>
